<svg version="1.1" xmlns="http://www.w3.org/2000/svg" xmlns:xlink="http://www.w3.org/1999/xlink" width="82.34538" height="82.3419" viewBox="0,0,82.34538,82.3419"><g transform="translate(-198.82731,-138.82905)"><g data-paper-data="{&quot;isPaintingLayer&quot;:true}" fill-rule="nonzero" stroke="none" stroke-width="1" stroke-linecap="butt" stroke-linejoin="miter" stroke-miterlimit="10" stroke-dasharray="" stroke-dashoffset="0" style="mix-blend-mode: normal"><path d="M240.00091,138.82905c22.73653,0 41.17178,18.43179 41.17178,41.17398c0,22.73734 -18.43465,41.16792 -41.17178,41.16792c-22.73956,0 -41.1736,-18.43058 -41.1736,-41.16792c0,-22.74158 18.43404,-41.17398 41.1736,-41.17398" fill="#99cc00"/><path d="M209.99549,161.51675c0.0333,-5.11073 2.81747,-9.76801 7.39299,-13.32409c6.46312,-4.74265 14.38279,-7.50808 22.92662,-7.43846c8.22903,0.06781 15.83452,2.74969 22.09604,7.27198c4.89879,3.67897 7.87427,8.56268 7.84037,13.90466c-0.03753,6.03758 -3.91807,11.44193 -10.0579,15.14935l0.00362,0.00182c-5.90858,3.6148 -12.82089,5.66527 -20.19875,5.60715c-8.79387,-0.0672 -16.88427,-3.12988 -23.36554,-8.23213c-4.18383,-3.54882 -6.66834,-8.05657 -6.63747,-12.94028" fill="#ffffff"/><path d="M245.60014,154.45184c1.8319,0.79367 2.73334,2.01414 2.7303,4.02586c0.00545,3.20071 -3.03541,5.42129 -7.08545,5.42372c-1.68661,0 -4.71839,-0.30209 -6.25183,-0.64111c-0.13561,-0.01755 -0.24276,-0.13621 -0.24276,-0.27848c0,-0.02482 0.00303,-0.04722 0.0115,-0.0678c0.52669,-6.22465 0.55756,-12.37725 -0.09444,-16.32199c-0.00484,-0.02301 -0.00726,-0.04843 -0.00848,-0.07083c0.00182,-0.13985 0.09505,-0.2579 0.22218,-0.28454v-0.00124c2.48088,-0.51761 4.25769,-0.72102 5.85773,-0.7186c4.27585,-0.00182 6.6623,2.06136 6.66593,5.15613c-0.00303,0.70407 -0.28514,2.94524 -1.80467,3.77886M240.68984,149.29692c-1.07638,0 -1.28645,0.16288 -1.26587,0.15983l0.02906,3.54397c0.27726,0.06054 3.85147,0.39471 3.81516,-1.77138c-0.01635,-1.13875 -1.05217,-1.93061 -2.57835,-1.93242M241.09666,160.27391c2.27626,0.00242 2.63344,-1.02977 2.6516,-2.11766c0.02724,-1.32036 -1.61276,-1.78167 -2.93432,-1.78349c-0.49036,-0.00243 -1.36454,0.10413 -1.36454,0.10413l-0.00484,3.61541c0.52003,0.13137 1.05821,0.18405 1.6521,0.18162" fill="#000000"/><path d="M224.01929,147.65571c4.98234,-1.14722 8.79628,0.5503 9.64866,4.26559c0.82635,3.61177 -1.57098,7.04495 -6.09686,8.08442c-0.07567,0.01635 -1.14902,0.23671 -1.14902,0.23671l0.6859,3.12262l0.2252,0.85966c0.03996,0.17193 0.06538,0.27969 0.08475,0.36444c0.00121,0.00485 0.00424,0.0109 0.00908,0.01756c0.0333,0.15438 -0.06175,0.30391 -0.21915,0.3372c-0.00182,0.00243 -4.17778,1.27133 -4.18202,1.27133c-0.14953,0.03572 -0.30148,-0.06236 -0.33599,-0.21189c-0.00545,-0.02785 -0.0109,-0.04964 -0.00787,-0.07446v-0.00243c-0.31964,-3.32482 -2.52689,-13.27929 -3.79275,-16.22271c-0.00121,-0.00363 -0.13379,-0.25063 0.14529,-0.35657c0.00242,0 0.00242,-0.00124 0.00605,-0.00124c1.25678,-0.62355 3.19281,-1.28222 4.97871,-1.69025M226.21019,156.27227c2.28836,-0.52367 3.20916,-1.64001 2.86833,-3.11354c-0.32509,-1.42812 -1.6515,-2.21513 -3.43678,-1.8077c-0.35536,0.08354 -1.20048,0.36142 -1.20048,0.36142l1.06851,4.66818c-0.00484,0.00121 0.36868,-0.02906 0.70043,-0.10836" fill="#000000"/><path d="M258.78548,152.74277c-3.31813,-2.06076 -4.85763,-0.89538 -4.93936,-0.09444c-0.07628,0.80033 0.7071,1.37061 2.55534,1.98569c2.14428,0.71437 5.18151,2.00446 4.89093,5.52482c-0.27061,3.31392 -2.98577,5.53935 -6.74644,5.30687c-2.1915,-0.13742 -4.40722,-1.08002 -6.01512,-2.74848c0,-0.00242 -0.12229,-0.09383 -0.09384,-0.25003c0.01574,-0.06236 0.0787,-0.15618 0.0787,-0.15861l2.2593,-2.60198c0.05812,-0.07265 0.15498,-0.11381 0.25547,-0.09625c0.11442,0.01816 0.15498,0.07446 0.15498,0.07446c1.05579,1.00616 2.75451,1.77804 3.86661,1.82828c1.73746,0.0781 2.69519,-1.864 -0.12773,-2.79086c-3.95439,-1.29736 -5.96367,-2.94705 -5.78509,-5.86444c0.21855,-3.49191 3.03663,-5.88018 7.05156,-5.44853c3.2249,0.34568 5.4158,2.41188 5.43214,2.39614c0.00726,-0.00545 0.12289,0.12472 0.09868,0.25366c-0.01574,0.06659 -0.0448,0.12531 -0.0896,0.16467c-2.30471,2.68794 -2.01291,2.43549 -2.2811,2.64859c0,0 0,0 0,0.00305c0,0 -0.05327,0.0672 -0.18585,0.05872c-0.07568,-0.00666 -0.33236,-0.13621 -0.37958,-0.1913" fill="#000000"/><path d="M237.55333,174.53694c0,0.00303 0.01029,0.01029 0.00666,0.01332c0,0.03693 -0.02119,0.06659 -0.0557,0.06659l-0.11018,0.00605l-1.96933,0.09626l-0.10594,0.00666c-0.0333,0 -0.06357,-0.02603 -0.06357,-0.06478c-0.00121,-0.00182 0,-0.00424 0,-0.0109l0.07144,-0.6962l-0.0333,-1.28464l-0.00242,-0.04722l-0.18646,-3.91326l-0.00424,-0.06054l-0.10292,-1.25377l-0.11987,-0.62295l-0.00363,-0.01089h0.00242c0.00121,-0.03572 0.02482,-0.06236 0.05327,-0.06236c0,0 0.55635,-0.02906 1.09515,-0.0557c0.53092,-0.02724 1.09212,-0.05388 1.09212,-0.05388c0.03269,0 0.05691,0.02663 0.05812,0.06054l0.00121,0.0109l-0.06054,0.63385l0.01816,1.258l0.00363,0.05569l0.18949,3.91326l0.00242,0.04904l0.09444,1.27859l0.1344,0.69015l-0.00484,-0.00182" fill="#000000"/><path d="M247.24861,170.87068c-0.09807,2.55536 -2.48451,3.99619 -4.90606,3.90478c-0.56967,-0.02422 -0.67682,-0.03753 -1.2029,-0.08112c-0.52306,-0.04177 -1.22409,-0.04722 -1.22409,-0.04722l-0.11079,-0.00363c-0.0345,0 -0.05932,-0.03209 -0.05872,-0.0678c0.00062,-0.00605 0,-0.0109 0.00062,-0.01271h-0.00062l0.13924,-0.70831l0.07749,-1.30462l-0.00123,-0.04904l0.15316,-3.98772l0.00666,-0.06236l0.00362,-1.28283l-0.07325,-0.64474l0.00243,-0.0115c0,-0.0333 0.03027,-0.06296 0.06053,-0.06054c0,0 0.50611,0.0224 0.70104,0.02542c0.27424,0 1.18293,-0.04056 1.78831,-0.01635c2.64615,0.12108 4.74321,1.79438 4.64454,4.41029M242.63371,168.2687c-0.18827,-0.00908 -0.27545,0.00243 -0.42498,0.02603l-0.01514,0.23247v0.06417l-0.15377,3.98954v0.04904l-0.00787,0.42923c0.14287,0.02724 0.26697,0.04964 0.4044,0.05569c1.26466,0.04722 2.63646,-0.68591 2.697,-2.17276c0.0557,-1.55464 -1.258,-2.6268 -2.49965,-2.67341" fill="#000000"/><path d="M233.64435,174.64106c0.01029,0.00908 0.0224,0.0224 0.02966,0.04238c0.00605,0.0339 -0.01574,0.06962 -0.04843,0.07386c0,0 0,-0.00242 -0.00484,0v0.00303l-2.34043,0.42135v-0.00242c-0.00303,0.00242 -0.00303,0.00484 -0.00484,0.00484c-0.01937,0.00242 -0.04056,-0.00848 -0.05146,-0.02482v0.00242l-2.31318,-2.40098c-0.34083,0.46191 -0.66714,0.93472 -0.9777,1.42206l-0.01332,0.04964l0.15195,0.74584l0.22702,0.66654h-0.00242c0,0.00363 0.00363,0.00605 0.00242,0.01513c0.00969,0.03087 -0.01029,0.06236 -0.04783,0.06901l-0.10776,0.0224l-1.93663,0.35052l-0.10957,0.01756v-0.00242c-0.02906,0.01029 -0.06054,-0.01513 -0.0678,-0.05267c0,-0.00242 0,-0.00484 0,-0.00848v0l-0.02301,-0.70649l-0.19312,-1.26588l-0.0109,-0.04722l-0.69741,-3.85514l-0.00969,-0.0563l-0.26516,-1.22834l-0.2022,-0.60297v-0.01332c-0.00605,-0.03148 0.01392,-0.06478 0.04419,-0.07143c0,0 0.54909,-0.09566 1.08001,-0.19191c0.52487,-0.09807 1.07396,-0.19615 1.07396,-0.19615c0.03148,-0.00787 0.05751,0.01938 0.0678,0.05085l0.00242,0.01271l0.01816,0.63445l0.18404,1.24469l0.00969,0.05509l0.26879,1.49653c1.08667,-1.44871 2.37009,-2.83445 3.71466,-4.02041c0.00363,-0.00243 0.00363,0 0.00363,0c0.00484,-0.00484 0.01635,-0.00667 0.02421,-0.0109c0.01877,-0.00242 0.0333,0.00485 0.05085,0.01817l1.40571,1.39967c0.0109,0.00908 0.02301,0.02482 0.02603,0.04298c0.00303,0.01998 -0.00666,0.0448 -0.023,0.05812c0,0.00243 0,0.00243 0,0.00243c-0.87357,0.75251 -1.69448,1.56978 -2.45424,2.44337l3.51972,3.39262" fill="#000000"/><path d="M255.69737,173.65366c-0.47462,3.43137 -5.55262,3.24188 -7.69628,0.1229c-0.00243,0.00181 0,0 0,0c-0.0115,-0.01877 -0.0115,-0.02966 -0.01393,-0.05206c0.00545,-0.01635 0.00909,-0.02422 0.01877,-0.03572c0.00606,-0.00424 0.00364,-0.00726 0.0109,-0.0115c0.22823,-0.20583 1.19563,-1.02735 1.44324,-1.22411c0.01574,-0.01574 0.0333,-0.01574 0.04904,-0.01574c0.01392,0.00182 0.0333,0.01271 0.0448,0.02906c1.09454,1.77138 3.82363,1.99053 4.06336,1.0322c0.25668,-1.04067 -5.13187,-0.87298 -4.6748,-4.16329c0.46433,-3.39565 5.98304,-2.48393 7.19623,-0.45102c0.00305,0 0,0.00243 0.00305,0.00243c0.00242,0.00181 0.00485,0.00181 0.00485,0.00181h-0.00243c0.00849,0.01393 0.00849,0.02906 0.00606,0.04541c-0.00303,0.01332 -0.00545,0.02179 -0.01393,0.03027c0.00607,0.00485 0,0.00666 -0.00119,0.00666c-0.17496,0.19917 -1.00373,1.11755 -1.22167,1.347v0.00243c-0.01695,0.01635 -0.03209,0.02482 -0.05691,0.02482c-0.01332,-0.00242 -0.023,-0.01089 -0.03632,-0.01816c0,-0.00181 0,-0.00181 0,-0.00181c-1.51528,-1.7066 -3.62203,-1.47595 -3.72253,-0.72527c-0.16043,1.13936 5.07739,0.53577 4.59973,4.05371" fill="#000000"/><g fill="#1565c0"><path d="M239.7625,210.93862l-8.86875,-10.56187h17.7375z"/><path d="M236.5375,187.47675v-3.225h6.45v3.225z"/><path d="M236.5375,192.31425v-3.225h6.45v3.225z"/><path d="M236.5375,202.7955v-8.86875h6.45v8.86875z"/><path d="M225.25,216.50175v-3.225h29.025v3.225z"/></g></g></g></svg>